<mxfile host="app.diagrams.net" modified="2023-03-29T22:02:09.647Z" agent="Mozilla/5.0 (Windows NT 10.0; Win64; x64) AppleWebKit/537.36 (KHTML, like Gecko) Chrome/111.0.0.0 Safari/537.36 Edg/111.0.1661.54" etag="ZdQ5N4KOZ5J25rY8uDwa" version="21.1.2" type="github">
  <diagram name="Página-1" id="rkHG6nmuOjkpt8-TUzvK">
    <mxGraphModel dx="794" dy="477" grid="1" gridSize="10" guides="1" tooltips="1" connect="1" arrows="1" fold="1" page="1" pageScale="1" pageWidth="827" pageHeight="1169" math="0" shadow="0">
      <root>
        <mxCell id="0" />
        <mxCell id="1" parent="0" />
        <mxCell id="QimY8xbkl2on-bAjsN7t-3" value="&lt;strong style=&quot;color: rgb(51, 51, 51); font-family: Arial, Helvetica, sans-serif; background-color: rgb(255, 255, 255);&quot;&gt;&lt;font style=&quot;font-size: 40px;&quot;&gt;Arquivo Histórico&lt;/font&gt;&lt;/strong&gt;" style="text;html=1;strokeColor=none;fillColor=none;align=left;verticalAlign=middle;whiteSpace=wrap;rounded=0;fontSize=40;" parent="1" vertex="1">
          <mxGeometry x="40" y="30" width="470" height="30" as="geometry" />
        </mxCell>
        <mxCell id="IfJ1QCMbeDYxTQooLl67-13" value="Diagrama de casos de uso calendario de eventos" style="shape=rect;html=1;verticalAlign=top;fontStyle=1;whiteSpace=wrap;align=center;fillColor=#f5f5f5;fontColor=#333333;strokeColor=#666666;shadow=1;" parent="1" vertex="1">
          <mxGeometry x="163" y="690" width="517" height="450" as="geometry" />
        </mxCell>
        <mxCell id="IfJ1QCMbeDYxTQooLl67-19" value="Incluir Evento" style="ellipse;whiteSpace=wrap;html=1;shadow=1;" parent="1" vertex="1">
          <mxGeometry x="260" y="740" width="90" height="70" as="geometry" />
        </mxCell>
        <mxCell id="IfJ1QCMbeDYxTQooLl67-20" value="Administrador" style="shape=umlActor;html=1;verticalLabelPosition=bottom;verticalAlign=top;align=center;" parent="1" vertex="1">
          <mxGeometry x="50" y="950" width="30" height="55" as="geometry" />
        </mxCell>
        <mxCell id="IfJ1QCMbeDYxTQooLl67-21" value="" style="edgeStyle=none;html=1;endArrow=block;endFill=0;endSize=12;verticalAlign=bottom;rounded=0;entryX=0;entryY=0.5;entryDx=0;entryDy=0;exitX=0.744;exitY=0.472;exitDx=0;exitDy=0;exitPerimeter=0;" parent="1" source="IfJ1QCMbeDYxTQooLl67-20" target="IfJ1QCMbeDYxTQooLl67-19" edge="1">
          <mxGeometry width="160" relative="1" as="geometry">
            <mxPoint x="130" y="855" as="sourcePoint" />
            <mxPoint x="290" y="855" as="targetPoint" />
          </mxGeometry>
        </mxCell>
        <mxCell id="IfJ1QCMbeDYxTQooLl67-22" value="Alterar Evento" style="ellipse;whiteSpace=wrap;html=1;shadow=1;" parent="1" vertex="1">
          <mxGeometry x="230" y="840" width="96" height="70" as="geometry" />
        </mxCell>
        <mxCell id="IfJ1QCMbeDYxTQooLl67-23" value="Excluir Evento" style="ellipse;whiteSpace=wrap;html=1;shadow=1;" parent="1" vertex="1">
          <mxGeometry x="310" y="920" width="140" height="70" as="geometry" />
        </mxCell>
        <mxCell id="IfJ1QCMbeDYxTQooLl67-24" value="" style="edgeStyle=none;html=1;endArrow=block;endFill=0;endSize=12;verticalAlign=bottom;rounded=0;entryX=0;entryY=0.714;entryDx=0;entryDy=0;entryPerimeter=0;exitX=0.5;exitY=0.5;exitDx=0;exitDy=0;exitPerimeter=0;" parent="1" source="IfJ1QCMbeDYxTQooLl67-20" target="IfJ1QCMbeDYxTQooLl67-22" edge="1">
          <mxGeometry width="160" relative="1" as="geometry">
            <mxPoint x="140" y="934.5" as="sourcePoint" />
            <mxPoint x="300" y="934.5" as="targetPoint" />
          </mxGeometry>
        </mxCell>
        <mxCell id="IfJ1QCMbeDYxTQooLl67-25" value="" style="edgeStyle=none;html=1;endArrow=block;endFill=0;endSize=12;verticalAlign=bottom;rounded=0;exitX=0.744;exitY=0.55;exitDx=0;exitDy=0;exitPerimeter=0;" parent="1" source="IfJ1QCMbeDYxTQooLl67-20" target="IfJ1QCMbeDYxTQooLl67-23" edge="1">
          <mxGeometry width="160" relative="1" as="geometry">
            <mxPoint x="150" y="1004.5" as="sourcePoint" />
            <mxPoint x="370" y="965" as="targetPoint" />
          </mxGeometry>
        </mxCell>
        <mxCell id="IfJ1QCMbeDYxTQooLl67-27" value="Consultar Evento" style="ellipse;whiteSpace=wrap;html=1;shadow=1;" parent="1" vertex="1">
          <mxGeometry x="450" y="1000" width="140" height="70" as="geometry" />
        </mxCell>
        <mxCell id="IfJ1QCMbeDYxTQooLl67-28" value="" style="edgeStyle=none;html=1;endArrow=block;endFill=0;endSize=12;verticalAlign=bottom;rounded=0;exitX=0.5;exitY=0.5;exitDx=0;exitDy=0;exitPerimeter=0;" parent="1" source="IfJ1QCMbeDYxTQooLl67-20" target="IfJ1QCMbeDYxTQooLl67-27" edge="1">
          <mxGeometry width="160" relative="1" as="geometry">
            <mxPoint x="90" y="945" as="sourcePoint" />
            <mxPoint x="410" y="960" as="targetPoint" />
          </mxGeometry>
        </mxCell>
        <mxCell id="IfJ1QCMbeDYxTQooLl67-29" value="Logar" style="ellipse;whiteSpace=wrap;html=1;shadow=1;" parent="1" vertex="1">
          <mxGeometry x="318" y="1050" width="96" height="70" as="geometry" />
        </mxCell>
        <mxCell id="IfJ1QCMbeDYxTQooLl67-30" value="&amp;lt;&amp;lt;include&amp;gt;&amp;gt;" style="edgeStyle=none;html=1;endArrow=open;verticalAlign=bottom;dashed=1;labelBackgroundColor=none;rounded=0;exitX=0.5;exitY=0.5;exitDx=0;exitDy=0;exitPerimeter=0;entryX=0;entryY=0.5;entryDx=0;entryDy=0;" parent="1" source="IfJ1QCMbeDYxTQooLl67-20" target="IfJ1QCMbeDYxTQooLl67-29" edge="1">
          <mxGeometry x="0.1908" y="2" width="160" relative="1" as="geometry">
            <mxPoint x="140" y="1095" as="sourcePoint" />
            <mxPoint x="300" y="1095" as="targetPoint" />
            <mxPoint y="1" as="offset" />
          </mxGeometry>
        </mxCell>
        <mxCell id="EzIeQGh6oStC6wNubKse-1" value="Diagrama de casos de uso Publicações" style="shape=rect;html=1;verticalAlign=top;fontStyle=1;whiteSpace=wrap;align=center;fillColor=#f5f5f5;fontColor=#333333;strokeColor=#666666;shadow=1;" parent="1" vertex="1">
          <mxGeometry x="160" y="200" width="520" height="470" as="geometry" />
        </mxCell>
        <mxCell id="EzIeQGh6oStC6wNubKse-2" value="Incluir publicação" style="ellipse;whiteSpace=wrap;html=1;shadow=1;" parent="1" vertex="1">
          <mxGeometry x="250" y="240" width="90" height="70" as="geometry" />
        </mxCell>
        <mxCell id="EzIeQGh6oStC6wNubKse-3" value="Administrador" style="shape=umlActor;html=1;verticalLabelPosition=bottom;verticalAlign=top;align=center;" parent="1" vertex="1">
          <mxGeometry x="40" y="450" width="30" height="55" as="geometry" />
        </mxCell>
        <mxCell id="EzIeQGh6oStC6wNubKse-4" value="" style="edgeStyle=none;html=1;endArrow=block;endFill=0;endSize=12;verticalAlign=bottom;rounded=0;entryX=0;entryY=0.5;entryDx=0;entryDy=0;exitX=0.744;exitY=0.472;exitDx=0;exitDy=0;exitPerimeter=0;" parent="1" source="EzIeQGh6oStC6wNubKse-3" target="EzIeQGh6oStC6wNubKse-2" edge="1">
          <mxGeometry width="160" relative="1" as="geometry">
            <mxPoint x="120" y="355" as="sourcePoint" />
            <mxPoint x="280" y="355" as="targetPoint" />
          </mxGeometry>
        </mxCell>
        <mxCell id="EzIeQGh6oStC6wNubKse-5" value="Alterar publicação" style="ellipse;whiteSpace=wrap;html=1;shadow=1;" parent="1" vertex="1">
          <mxGeometry x="220" y="340" width="96" height="70" as="geometry" />
        </mxCell>
        <mxCell id="EzIeQGh6oStC6wNubKse-6" value="Excluir &lt;br&gt;publicação" style="ellipse;whiteSpace=wrap;html=1;shadow=1;" parent="1" vertex="1">
          <mxGeometry x="300" y="420" width="140" height="70" as="geometry" />
        </mxCell>
        <mxCell id="EzIeQGh6oStC6wNubKse-7" value="" style="edgeStyle=none;html=1;endArrow=block;endFill=0;endSize=12;verticalAlign=bottom;rounded=0;entryX=0;entryY=0.714;entryDx=0;entryDy=0;entryPerimeter=0;exitX=0.5;exitY=0.5;exitDx=0;exitDy=0;exitPerimeter=0;" parent="1" source="EzIeQGh6oStC6wNubKse-3" target="EzIeQGh6oStC6wNubKse-5" edge="1">
          <mxGeometry width="160" relative="1" as="geometry">
            <mxPoint x="130" y="434.5" as="sourcePoint" />
            <mxPoint x="290" y="434.5" as="targetPoint" />
          </mxGeometry>
        </mxCell>
        <mxCell id="EzIeQGh6oStC6wNubKse-8" value="" style="edgeStyle=none;html=1;endArrow=block;endFill=0;endSize=12;verticalAlign=bottom;rounded=0;exitX=0.744;exitY=0.55;exitDx=0;exitDy=0;exitPerimeter=0;" parent="1" source="EzIeQGh6oStC6wNubKse-3" target="EzIeQGh6oStC6wNubKse-6" edge="1">
          <mxGeometry width="160" relative="1" as="geometry">
            <mxPoint x="140" y="504.5" as="sourcePoint" />
            <mxPoint x="360" y="465" as="targetPoint" />
          </mxGeometry>
        </mxCell>
        <mxCell id="EzIeQGh6oStC6wNubKse-9" value="Consultar publicação" style="ellipse;whiteSpace=wrap;html=1;shadow=1;" parent="1" vertex="1">
          <mxGeometry x="440" y="480" width="140" height="70" as="geometry" />
        </mxCell>
        <mxCell id="EzIeQGh6oStC6wNubKse-10" value="" style="edgeStyle=none;html=1;endArrow=block;endFill=0;endSize=12;verticalAlign=bottom;rounded=0;exitX=0.5;exitY=0.5;exitDx=0;exitDy=0;exitPerimeter=0;" parent="1" source="EzIeQGh6oStC6wNubKse-3" target="EzIeQGh6oStC6wNubKse-9" edge="1">
          <mxGeometry width="160" relative="1" as="geometry">
            <mxPoint x="80" y="445" as="sourcePoint" />
            <mxPoint x="400" y="460" as="targetPoint" />
          </mxGeometry>
        </mxCell>
        <mxCell id="EzIeQGh6oStC6wNubKse-11" value="Logar" style="ellipse;whiteSpace=wrap;html=1;shadow=1;" parent="1" vertex="1">
          <mxGeometry x="308" y="550" width="96" height="70" as="geometry" />
        </mxCell>
        <mxCell id="EzIeQGh6oStC6wNubKse-12" value="&amp;lt;&amp;lt;include&amp;gt;&amp;gt;" style="edgeStyle=none;html=1;endArrow=open;verticalAlign=bottom;dashed=1;labelBackgroundColor=none;rounded=0;exitX=0.5;exitY=0.5;exitDx=0;exitDy=0;exitPerimeter=0;entryX=0;entryY=0.5;entryDx=0;entryDy=0;" parent="1" source="EzIeQGh6oStC6wNubKse-3" target="EzIeQGh6oStC6wNubKse-11" edge="1">
          <mxGeometry x="0.196" y="1" width="160" relative="1" as="geometry">
            <mxPoint x="130" y="595" as="sourcePoint" />
            <mxPoint x="290" y="595" as="targetPoint" />
            <mxPoint as="offset" />
          </mxGeometry>
        </mxCell>
        <mxCell id="EzIeQGh6oStC6wNubKse-13" value="Importar&amp;nbsp;&lt;br&gt;como &lt;br&gt;PDF" style="ellipse;whiteSpace=wrap;html=1;shadow=1;" parent="1" vertex="1">
          <mxGeometry x="430" y="290" width="140" height="70" as="geometry" />
        </mxCell>
        <mxCell id="EzIeQGh6oStC6wNubKse-15" value="&amp;lt;&amp;lt;extend&amp;gt;&amp;gt;" style="edgeStyle=none;html=1;startArrow=open;endArrow=none;startSize=12;verticalAlign=bottom;dashed=1;labelBackgroundColor=none;rounded=0;exitX=0.5;exitY=1;exitDx=0;exitDy=0;" parent="1" source="EzIeQGh6oStC6wNubKse-13" target="EzIeQGh6oStC6wNubKse-9" edge="1">
          <mxGeometry width="160" relative="1" as="geometry">
            <mxPoint x="414" y="400" as="sourcePoint" />
            <mxPoint x="574" y="400" as="targetPoint" />
          </mxGeometry>
        </mxCell>
        <mxCell id="EzIeQGh6oStC6wNubKse-16" value="Visitante &lt;br&gt;do site" style="shape=umlActor;html=1;verticalLabelPosition=bottom;verticalAlign=top;align=center;" parent="1" vertex="1">
          <mxGeometry x="740" y="400" width="30" height="55" as="geometry" />
        </mxCell>
        <mxCell id="EzIeQGh6oStC6wNubKse-17" value="" style="edgeStyle=none;html=1;endArrow=block;endFill=0;endSize=12;verticalAlign=bottom;rounded=0;" parent="1" source="EzIeQGh6oStC6wNubKse-16" target="EzIeQGh6oStC6wNubKse-9" edge="1">
          <mxGeometry width="160" relative="1" as="geometry">
            <mxPoint x="450" y="480" as="sourcePoint" />
            <mxPoint x="610" y="480" as="targetPoint" />
          </mxGeometry>
        </mxCell>
        <mxCell id="fEVfWD3LFcPTaNWm6_eC-1" value="Dentro de publicações inclui-se acervo documental, acervo iconografico e biblioteca virtual historica&amp;nbsp;" style="shape=note2;boundedLbl=1;whiteSpace=wrap;html=1;size=25;verticalAlign=top;align=left;shadow=1;" vertex="1" parent="1">
          <mxGeometry x="40" y="80" width="390" height="70" as="geometry" />
        </mxCell>
        <mxCell id="fEVfWD3LFcPTaNWm6_eC-3" style="edgeStyle=orthogonalEdgeStyle;rounded=0;orthogonalLoop=1;jettySize=auto;html=1;exitX=0.5;exitY=1;exitDx=0;exitDy=0;align=left;" edge="1" parent="1" source="QimY8xbkl2on-bAjsN7t-3">
          <mxGeometry relative="1" as="geometry">
            <mxPoint x="275" y="60" as="targetPoint" />
          </mxGeometry>
        </mxCell>
      </root>
    </mxGraphModel>
  </diagram>
</mxfile>
